# xmcd
#
# Track frame offsets:
#	150
#	16977
#	29886
#	37915
#	51394
#	66538
#	79059
#	90820
#	97739
#	108033
#	117390
#	126786
#	138555
#	156866
#	169248
#	177619
#	186256
#	203786
#	218389
#	229976
#
# Disc length: 3168 seconds
#
# Revision: 0
# Processed by: cddbd v1.5.1PL2 Copyright (c) Steve Scherf et al.
# Submitted via: dBpowerAMP V4.0
#
DISCID=140c5e14
DTITLE=Various Artist - Great Country Hits CD1
DYEAR=2002
DGENRE=Country
TTITLE0=Razzy Bailey - Teddy Bear
TTITLE1=Lynn Anderson - Top of the World
TTITLE2=Johnny Cash - Hey Good Looking
TTITLE3=Bellamy Brothers - Do you love as good as you  look
TTITLE4=Willie Nelson - Face of a Fighter
TTITLE5=Lynn Anderson - Stand by your Man
TTITLE6=Kenny Rogers - Me and Bobby McGee
TTITLE7=Boxcar Willie - I saw the Light
TTITLE8=Don Williams - Take my Hand for a while
TTITLE9=Marilyn Monroe - One Silver Dollar
TTITLE10=Johnny Paycheck - Mr. Lovemaker
TTITLE11=Frankie Laine - Mule Train
TTITLE12=Nitty Gritty Dirt Band - Long Hard Road
TTITLE13=Porter Wagoner - If you go, i'll follow you
TTITLE14=Willie Nelson - Slow Down Old World
TTITLE15=Terri Gibbs - Someone
TTITLE16=Atlanta - Pictures
TTITLE17=Tammy Wynette - Till i can make it on my own
TTITLE18=Conway Twitty - I'm not through loving you
TTITLE19=Ralph Stanley - Buckwheat
EXTD=
EXTT0=
EXTT1=
EXTT2=
EXTT3=
EXTT4=
EXTT5=
EXTT6=
EXTT7=
EXTT8=
EXTT9=
EXTT10=
EXTT11=
EXTT12=
EXTT13=
EXTT14=
EXTT15=
EXTT16=
EXTT17=
EXTT18=
EXTT19=
PLAYORDER=
